<?xml version="1.0" encoding="UTF-8" standalone="no"?>
<!-- Created with Inkscape (http://www.inkscape.org/) -->

<svg
   xmlns:dc="http://purl.org/dc/elements/1.1/"
   xmlns:cc="http://creativecommons.org/ns#"
   xmlns:rdf="http://www.w3.org/1999/02/22-rdf-syntax-ns#"
   xmlns:svg="http://www.w3.org/2000/svg"
   xmlns="http://www.w3.org/2000/svg"
   xmlns:sodipodi="http://sodipodi.sourceforge.net/DTD/sodipodi-0.dtd"
   xmlns:inkscape="http://www.inkscape.org/namespaces/inkscape"
   width="512"
   height="512"
   viewBox="0 0 135.46666 135.46667"
   version="1.1"
   id="svg8"
   inkscape:version="0.92.3 (2405546, 2018-03-11)"
   sodipodi:docname="icon.svg">
  <defs
     id="defs2" />
  <sodipodi:namedview
     id="base"
     pagecolor="#ffffff"
     bordercolor="#666666"
     borderopacity="1.0"
     inkscape:pageopacity="0.0"
     inkscape:pageshadow="2"
     inkscape:zoom="1.5"
     inkscape:cx="200.85745"
     inkscape:cy="258.98305"
     inkscape:document-units="px"
     inkscape:current-layer="layer1"
     showgrid="true"
     units="px"
     inkscape:window-width="1920"
     inkscape:window-height="1027"
     inkscape:window-x="-8"
     inkscape:window-y="2151"
     inkscape:window-maximized="1">
    <inkscape:grid
       type="axonomgrid"
       id="grid3713"
       units="px"
       empspacing="5"
       spacingy="1.0583333" />
  </sodipodi:namedview>
  <metadata
     id="metadata5">
    <rdf:RDF>
      <cc:Work
         rdf:about="">
        <dc:format>image/svg+xml</dc:format>
        <dc:type
           rdf:resource="http://purl.org/dc/dcmitype/StillImage" />
        <dc:title></dc:title>
      </cc:Work>
    </rdf:RDF>
  </metadata>
  <g
     inkscape:label="Layer 1"
     inkscape:groupmode="layer"
     id="layer1"
     transform="translate(0,-161.53331)">
    <g
       id="g4540"
       transform="translate(-7.3967333e-7,-5.2916713)">
      <path
         inkscape:connector-curvature="0"
         id="path4528"
         d="m 45.827177,275.83331 v -74.08333 l 22.913588,-13.22917 22.913586,13.22917 v 74.08333 l -22.913586,13.22917 z"
         style="fill:#ffff00;stroke:#000000;stroke-width:0.26458332px;stroke-linecap:butt;stroke-linejoin:miter;stroke-opacity:1" />
      <path
         inkscape:connector-curvature="0"
         id="path4530"
         d="m 64.158047,196.45831 4.582718,2.64584 4.582716,-2.64584 v -10.58333 l -4.582716,-2.64583 -4.582718,2.64583 z"
         style="fill:#cccccc;stroke:#000000;stroke-width:0.26458332px;stroke-linecap:butt;stroke-linejoin:miter;stroke-opacity:1" />
      <path
         inkscape:connector-curvature="0"
         id="path4532"
         d="m 54.992611,201.74998 9.165436,-5.29167 4.582718,2.64584 4.582716,-2.64584 9.165436,5.29167 -13.748152,7.9375 z"
         style="fill:#b3b3b3;stroke:#000000;stroke-width:0.26458332px;stroke-linecap:butt;stroke-linejoin:miter;stroke-opacity:1" />
      <path
         inkscape:connector-curvature="0"
         id="path4534"
         d="m 45.827177,265.24998 22.913588,13.22916 22.913586,-13.22916 v 10.58333 L 68.740765,289.06248 45.827177,275.83331 c 0,0 0,-10.58333 0,-10.58333 z"
         style="fill:#4d4d4d;stroke:#000000;stroke-width:0.26458332px;stroke-linecap:butt;stroke-linejoin:miter;stroke-opacity:1" />
      <path
         inkscape:connector-curvature="0"
         id="path4534-2"
         d="m 45.827176,207.04164 22.913588,13.22917 22.913588,-13.22917 -2e-6,5.29167 -22.913586,13.22917 -22.913589,-13.22917 z"
         style="fill:#4d4d4d;stroke:#000000;stroke-width:0.26458332px;stroke-linecap:butt;stroke-linejoin:miter;stroke-opacity:1"
         sodipodi:nodetypes="ccccccc" />
    </g>
    <path
       style="fill:#0000ff;stroke:#000000;stroke-width:0.26458332px;stroke-linecap:butt;stroke-linejoin:miter;stroke-opacity:1"
       d="m 95.833129,275.77912 15.386661,3.90716 11.07705,-11.37167 -26.059771,-58.62714 -5.128893,-1.3024 -3.692337,3.79056 z"
       id="path4559"
       inkscape:connector-curvature="0" />
    <path
       style="fill:#0000ff;stroke:#000000;stroke-width:0.26458332px;stroke-linecap:butt;stroke-linejoin:miter;stroke-opacity:1"
       d="m 12.91899,262.1171 9.632049,12.61898 15.74441,-2.0321 15.990535,-62.13337 -3.210681,-4.20635 -5.248128,0.67738 z"
       id="path4559-6"
       inkscape:connector-curvature="0" />
    <g
       id="g4526"
       transform="matrix(1.0583334,0,0,1.0583334,-5.6955137e-6,9.1333097)">
      <path
         sodipodi:nodetypes="ccccccccccccccc"
         inkscape:connector-curvature="0"
         id="path3715"
         d="m 99.592919,264.49998 -47.631395,-27.5 -17.320508,10 -21.650635,-12.50001 v -14.99999 l 17.320509,10 12.99038,-7.5 v -15 l -17.320508,-10 12.99038,-7.50001 21.650636,12.50001 v 20 l 47.631392,27.5 v 10 z"
         style="fill:#b3b3b3;stroke:#000000;stroke-width:1.05833328;stroke-linecap:butt;stroke-linejoin:miter;stroke-miterlimit:4;stroke-dasharray:none;stroke-opacity:1;paint-order:markers stroke fill" />
      <path
         inkscape:connector-curvature="0"
         id="path3717"
         d="m 30.310889,199.49998 8.660254,-5 17.320508,10 v 20 l 51.961519,30 v -5 l -47.631393,-27.5 v -20 l -21.650634,-12.5 -12.990381,7.5 z"
         style="fill:#ececec;stroke:none;stroke-width:0.26458332px;stroke-linecap:butt;stroke-linejoin:miter;stroke-opacity:1" />
    </g>
  </g>
</svg>
